<svg xmlns="http://www.w3.org/2000/svg" version="1.1" class="next-icon" x="0" y="0" width="50" height="40" viewBox="0 0 50 40" enable-background="new 0 0 50 40" xml:space="preserve" aria-disabled="false" display="block">
  <path d="M34.7 19.2L30.9 15.3c-0.4-0.4-1.1-0.4-1.5 0-0.4 0.4-0.4 1.1 0 1.6l2 2H16.1c-0.6 0-1.1 0.5-1.1 1.1 0 0.6 0.5 1.1 1.1 1.1h15.3l-2 2c-0.4 0.4-0.4 1.1 0 1.6 0.4 0.4 1.1 0.4 1.5 0l3.8-3.9c0 0 0 0 0.1-0.1 0 0 0 0 0 0 0 0 0 0 0 0 0.1-0.2 0.2-0.4 0.2-0.7 0-0.2-0.1-0.5-0.2-0.7 0 0 0 0 0 0 0 0 0 0 0 0 0 0 0 0-0.1-0.1C34.7 19.2 34.7 19.2 34.7 19.2z"/>
</svg>
