<svg xmlns="http://www.w3.org/2000/svg" version="1.1" class="prev-icon" x="0" y="0" width="50" height="40" viewBox="0 0 50 40" enable-background="new 0 0 50 40" xml:space="preserve" aria-disabled="true" display="block">
  <path d="M15.3 19.2c0 0 0 0-0.1 0.1 0 0 0 0 0 0 0 0 0 0 0 0-0.1 0.2-0.2 0.4-0.2 0.7 0 0.2 0.1 0.5 0.2 0.7 0 0 0 0 0 0 0 0 0 0 0 0 0 0 0 0 0.1 0.1l3.8 3.9c0.4 0.4 1.1 0.4 1.5 0 0.4-0.4 0.4-1.1 0-1.6l-2-2h15.3c0.6 0 1.1-0.5 1.1-1.1 0-0.6-0.5-1.1-1.1-1.1H18.6l2-2c0.4-0.4 0.4-1.1 0-1.6-0.4-0.4-1.1-0.4-1.5 0l-3.8 3.9C15.3 19.2 15.3 19.2 15.3 19.2z"/>
</svg>
